EMG
version=1
nRows=38
nColumns=17
inDegrees=no
endheader
time	_right_gast_med	_right_glut_max	_left_gast_med	_left_glut_max	_right_glut_med	_right_bic_fem	_right_rect_fem	_right_vast_lat	_right_vast_med	_right_tens_fasc_lat	_left_glut_med	_left_bic_fem	_left_rect_fem	_left_vast_lat	_left_vast_med	_left_tens_fasc_lat
      0.52000000	      1.79776239	      0.04882168	      0.01399940	      0.03139440	     -0.07146131	      0.00412631	      0.05536719	     -0.02501002	     -0.79146808	     -0.00309617	      0.04869499	      0.07957061	     -0.01584351	     -0.01157510	      0.32408315	      0.05904356
      0.53000000	      1.19166899	      0.02333488	      0.00909607	     -0.08401468	     -0.06785026	     -0.07500756	      0.08691249	      0.03074258	     -0.17681001	     -0.02605597	      0.05138920	      0.10290890	     -0.02238674	      0.01228010	      0.01362597	      0.08474465
      0.54000000	     -0.14549142	      0.00374199	      0.00764140	     -0.15470615	     -0.06808367	     -0.01389998	      0.01804540	      0.06918008	      0.50332814	      0.04339810	      0.02362956	      0.07225008	     -0.02819230	      0.02653261	      0.00224594	      0.02124974
      0.55000000	     -1.95507991	      0.00747548	      0.01451182	     -0.14336294	     -0.04272279	      0.05757768	     -0.05167532	      0.05083873	      0.68059289	      0.13656646	     -0.01274973	      0.02868863	     -0.01490238	      0.03258412	      0.11540319	     -0.02199725
      0.56000000	     -2.71903396	     -0.01022127	      0.02448694	     -0.09777435	      0.00320399	      0.04578888	     -0.06074524	      0.02722505	      0.47940323	      0.15532015	     -0.01100519	     -0.02001496	      0.01316770	      0.03890220	      0.05368336	      0.00102964
      0.57000000	     -1.92735744	     -0.04867332	      0.02848689	     -0.06882256	      0.02579140	      0.01945943	     -0.04674248	     -0.03917734	      0.24337730	      0.10219121	      0.03274536	     -0.05434068	      0.01598322	      0.03625620	     -0.08977804	      0.03308104
      0.58000000	     -0.71550274	     -0.04871057	      0.03120621	     -0.04667754	      0.01296906	      0.00441641	     -0.02365761	     -0.11491720	      0.14105022	      0.01295828	      0.08413181	     -0.03767161	      0.01028973	      0.01455475	     -0.15060762	      0.01846466
      0.59000000	      0.17392373	      0.03710018	      0.03122961	     -0.02724056	     -0.06242663	      0.01530899	     -0.01750240	     -0.06604538	      0.10536277	     -0.05466989	      0.08828428	      0.00113384	      0.02468023	      0.00314986	     -0.06563219	     -0.01978775
      0.60000000	      0.44676799	      0.10597216	      0.01193245	     -0.00981264	     -0.16864170	      0.00320789	     -0.03718059	      0.09258001	      0.01674359	     -0.05626169	      0.01660526	      0.00713323	      0.02807702	      0.01629369	      0.13671851	     -0.02826378
      0.61000000	      0.42952731	     -0.00520976	     -0.01090063	      0.02301900	     -0.16334938	     -0.02839023	      0.00310129	      0.16849773	     -0.11623466	     -0.02876797	     -0.04831338	     -0.01356463	      0.02467315	      0.00309965	      0.20242871	      0.00145485
      0.62000000	      0.83987814	     -0.10158048	     -0.01961668	      0.04539475	      0.00966833	     -0.02349763	      0.23811810	      0.12132838	     -0.17487621	     -0.03154624	     -0.04825496	     -0.02473405	      0.02622509	     -0.03582925	      0.03909496	      0.05773506
      0.63000000	      1.22578895	      0.01677333	     -0.01585929	     -0.00783194	      0.18594992	      0.07308055	      0.49492353	     -0.03503243	     -0.05658071	     -0.10588320	     -0.04975779	     -0.03797590	      0.01630569	     -0.03354121	     -0.07329442	      0.10788559
      0.64000000	      0.28974447	      0.09755467	     -0.00451399	     -0.10632431	      0.19658189	      0.15846363	      0.32850754	     -0.09059945	      0.06045271	     -0.13009802	     -0.08761153	     -0.03647333	      0.00029010	     -0.00042797	     -0.00544647	      0.08097540
      0.65000000	      0.19040513	     -0.03450369	      0.01664719	     -0.16329516	      0.11507937	      0.08966983	     -0.10163829	      0.08429608	     -0.05011236	      0.01910808	     -0.10561770	      0.01402720	     -0.00359104	      0.01872749	      0.06661004	      0.00214753
      0.66000000	      0.63533300	     -0.07146219	      0.03727923	     -0.01179144	      0.00666184	     -0.06186156	     -0.36790368	      0.16192155	     -0.11095735	      0.10943827	     -0.07098006	      0.07919519	      0.00413284	      0.03380625	      0.01139664	     -0.04959674
      0.67000000	     -1.33657277	      0.03402689	      0.03816979	      0.39287004	     -0.04569252	     -0.04808149	     -0.37123051	     -0.00892526	     -0.07772870	      0.00733691	     -0.02878345	      0.10471336	      0.00651584	      0.06933648	     -0.07950861	     -0.06886521
      0.68000000	     -2.70444012	      0.07601964	      0.01962152	      0.57753271	     -0.00642849	      0.09840678	     -0.21672842	     -0.06894498	     -0.20487618	     -0.05094634	     -0.00638606	      0.08968497	      0.00414708	      0.09986856	     -0.08993597	     -0.06542879
      0.69000000	     -2.18181419	      0.08493961	      0.00212884	      0.31258196	      0.02384303	      0.06261936	     -0.05366685	     -0.03010364	     -0.25889862	     -0.00927075	      0.03944565	      0.07143016	      0.00558124	      0.09209944	     -0.02743837	     -0.03683285
      0.70000000	     -1.41888630	      0.16707098	     -0.00606282	     -0.03833904	      0.01644343	     -0.06950574	      0.01229136	     -0.00985530	     -0.20355776	      0.01745113	      0.08878306	      0.05808124	      0.00785737	      0.05019756	      0.01912792	      0.01603170
      0.71000000	     -0.55337477	      0.22723079	     -0.00713934	     -0.18581203	      0.02238297	     -0.08101139	     -0.00591725	     -0.01955183	     -0.14266837	      0.01085369	      0.09826777	      0.01585578	      0.00549309	     -0.01545922	      0.00497734	      0.06261512
      0.72000000	      0.73878753	      0.09784619	     -0.00243540	     -0.16366823	      0.08206429	     -0.04176726	     -0.04162649	     -0.00073897	     -0.02273142	      0.00834486	      0.08291053	     -0.03449874	      0.00077250	     -0.08026566	     -0.02538217	      0.06100290
      0.73000000	      1.80145228	     -0.16932242	     -0.00136257	     -0.09440430	      0.13707672	      0.00940596	     -0.02936204	      0.00115668	      0.16467753	      0.03368728	      0.05630606	     -0.04043565	     -0.00083862	     -0.09720261	     -0.00981501	      0.03041570
      0.74000000	      1.68412399	     -0.39292911	     -0.00468254	     -0.04412303	      0.10853718	      0.04144492	      0.04415026	     -0.04656085	      0.29686591	      0.05801086	      0.03314926	     -0.00287156	      0.00285704	     -0.06978968	      0.04918419	      0.00423630
      0.75000000	      0.86152524	     -0.33426479	     -0.00625928	     -0.01043901	      0.02953645	      0.01125774	      0.07451481	     -0.05329194	      0.29770178	      0.04432973	      0.01785560	      0.04030964	      0.01569761	     -0.04268793	      0.08002367	     -0.01019104
      0.76000000	      0.50359297	     -0.05555548	     -0.00821822	      0.09681976	     -0.01338167	     -0.01472914	      0.04987346	     -0.02057010	      0.20787235	      0.03880957	      0.01693793	      0.04266359	      0.03555259	     -0.04318101	      0.04147971	     -0.01135398
      0.77000000	      0.28690115	      0.19787671	     -0.01434391	      0.15732758	      0.00472761	     -0.04633476	      0.05131018	      0.00621769	      0.11381761	      0.04737698	      0.04463625	      0.01458045	      0.03806751	     -0.06279795	     -0.03483425	      0.00245228
      0.78000000	      0.29670674	      0.36912155	     -0.00568759	      0.03524337	      0.03109712	     -0.07103796	      0.06382002	      0.02444828	      0.06292164	      0.02960843	      0.06768984	     -0.02869872	      0.02503883	     -0.06634566	     -0.09035207	      0.01921960
      0.79000000	      1.41951370	      0.34479311	      0.01362352	     -0.09232431	      0.02424915	     -0.04277361	      0.03404359	      0.06805255	      0.04716586	      0.01060581	      0.04959460	     -0.08817428	      0.01286626	     -0.03569058	     -0.09146906	      0.02903851
      0.80000000	      1.48936963	      0.17099869	      0.01489644	     -0.07618724	     -0.00682501	      0.01743234	      0.00239715	      0.18085538	      0.04361223	      0.01299478	      0.00662355	     -0.10427797	      0.00951231	      0.00963828	     -0.04533327	      0.03482313
      0.81000000	     -1.11641824	      0.05232490	      0.02982531	     -0.00594868	     -0.02697452	      0.05356633	      0.01505294	      0.26252016	      0.03880496	      0.01182649	     -0.02873677	     -0.02727374	      0.00929362	      0.05721351	      0.00092908	      0.04095297
      0.82000000	     -1.96973979	     -0.03685586	      0.05350794	     -0.01922583	     -0.02364070	      0.05059096	      0.02324673	      0.15626989	      0.03031208	      0.00794054	     -0.04445389	      0.04487452	      0.00104578	      0.07660085	      0.02782545	      0.04690480
      0.83000000	      0.74022073	     -0.14180207	      0.01885077	     -0.07123679	     -0.01238016	      0.01603049	      0.02426443	     -0.05597369	      0.02960510	      0.00576161	     -0.04482848	      0.05126723	     -0.00616272	      0.04364291	      0.07379276	      0.02118941
      0.84000000	      2.45307660	     -0.17317291	     -0.03240003	     -0.05538609	     -0.00479530	     -0.02959221	      0.03751154	     -0.18689781	      0.02277528	      0.00506229	     -0.02050066	      0.05071324	      0.00386084	      0.00723000	      0.15937020	     -0.02372897
      0.85000000	      1.84869432	     -0.03517728	     -0.00178159	     -0.00227312	      0.00029507	     -0.04711651	      0.04352069	     -0.20033923	     -0.04485277	      0.00557903	      0.02782502	      0.02277203	      0.02454096	      0.01298970	      0.17264609	     -0.02899812
      0.86000000	      1.43782544	      0.18810371	      0.00821309	      0.03194384	     -0.00239967	     -0.01550760	      0.03825146	     -0.17755821	     -0.12225112	      0.00420961	      0.05302482	     -0.02937717	      0.02428332	      0.02587114	     -0.12719779	     -0.01533400
      0.87000000	      1.31987202	      0.13642520	     -0.01896310	      0.04806161	     -0.00443259	      0.02391180	      0.02443622	     -0.15243416	     -0.10089164	      0.00556466	      0.04316103	     -0.03329358	      0.00574192	      0.00678179	     -0.54241472	     -0.02713982
      0.88000000	      0.88377964	     -0.24859184	     -0.00854445	      0.04232138	      0.01392571	      0.03653394	      0.00936914	     -0.09786446	     -0.04814784	      0.00768272	      0.03167731	      0.00782575	      0.01770508	     -0.03222627	     -0.40430015	     -0.06712013
      0.89000000	     -0.20252572	     -0.45157531	      0.01869319	      0.03220261	      0.03640024	      0.04031228	     -0.00447366	     -0.01405885	     -0.03231613	     -0.00465645	      0.02033774	      0.05391221	      0.03232916	     -0.04957471	      0.24251963	     -0.07154164
